<svg xmlns="http://www.w3.org/2000/svg" version="1.1" xmlns:xlink="http://www.w3.org/1999/xlink" xmlns:svgjs="http://svgjs.dev/svgjs" width="1000" height="750" viewBox="0 0 1000 750"><rect width="1000" height="750" fill="#ffffff"></rect><g transform="matrix(0.834,0,0,0.834,82.49454545454546,115.4193570850203)"><svg viewBox="0 0 396 247" data-background-color="#61777f" preserveAspectRatio="xMidYMid meet" height="623" width="1000" xmlns="http://www.w3.org/2000/svg" xmlns:xlink="http://www.w3.org/1999/xlink"><g id="tight-bounds" transform="matrix(1,0,0,1,0.2400000000000091,-0.09999999999999432)"><svg viewBox="0 0 395.52 247.2" height="247.2" width="395.52"><g><svg></svg></g><g><svg viewBox="0 0 395.52 247.2" height="247.2" width="395.52"><g transform="matrix(1,0,0,1,75.54432,73.38280455730953)"><svg viewBox="0 0 244.43135999999998 100.43439088538092" height="100.43439088538092" width="244.43135999999998"><g><svg viewBox="0 0 244.43135999999998 100.43439088538092" height="100.43439088538092" width="244.43135999999998"><g><svg viewBox="0 0 244.43135999999998 100.43439088538092" height="100.43439088538092" width="244.43135999999998"><g><svg viewBox="0 0 244.43135999999998 100.43439088538092" height="100.43439088538092" width="244.43135999999998"><g id="textblocktransform"><svg viewBox="0 0 244.43135999999998 100.43439088538092" height="100.43439088538092" width="244.43135999999998" id="textblock"><g><svg viewBox="0 0 244.43135999999998 100.43439088538092" height="100.43439088538092" width="244.43135999999998"><g transform="matrix(1,0,0,1,0,0)"><svg width="244.43135999999998" viewBox="-2.53 -34.2 110.48 45.400000000000006" height="100.43439088538092" data-palette-color="#ffffff"><path d="M7.51-29.82Q6.88-29.17 5.89-29.17 4.9-29.17 4.3-29.82 3.69-30.46 3.69-31.7 3.69-32.94 4.3-33.57 4.9-34.2 5.89-34.2 6.88-34.2 7.51-33.56 8.14-32.91 8.14-31.69 8.14-30.46 7.51-29.82ZM7.79-24.92L7.79 3.82Q7.79 11.2 0.99 11.2L0.99 11.2Q-1.16 11.2-2.53 10.62L-2.53 10.62-2.53 7.56Q-0.96 8.01 0.71 8.01L0.71 8.01Q3.99 8.01 3.99 4.1L3.99 4.1 3.99-24.92 7.79-24.92ZM17.45-21.99Q20.52-25.38 25.83-25.38 31.14-25.38 34.22-21.9 37.31-18.43 37.31-12.42 37.31-6.42 34.22-2.96L34.22-2.96Q31.14 0.46 25.76 0.46L25.76 0.46Q20.67 0.51 17.49-3.06 14.3-6.62 14.38-12.49L14.38-12.49Q14.38-18.6 17.45-21.99ZM25.78-22.17L25.78-22.17Q18.3-22.17 18.3-12.49L18.3-12.49Q18.3-7.71 20.21-5.21 22.12-2.7 25.83-2.7 29.55-2.7 31.47-5.19 33.39-7.68 33.39-12.47 33.39-17.26 31.47-19.72 29.55-22.17 25.78-22.17ZM65.26-29.83L54.72-29.83 54.72 0 50.85 0 50.85-29.83 40.31-29.83 40.31-33.27 65.26-33.27 65.26-29.83ZM68.04-6.85L68.04-6.85Q68.04-4.83 69.28-3.74 70.52-2.65 72.74-2.65L72.74-2.65Q76.31-2.65 78.3-4.59 80.3-6.52 80.3-10.01L80.3-10.01 80.3-12.26 76.53-12.11Q72.03-11.93 70.04-10.69 68.04-9.45 68.04-6.85ZM84.09-17.01L84.09 0 81.29 0 80.53-3.54 80.35-3.54Q78.48-1.21 76.64-0.38 74.79 0.46 72.01 0.46L72.01 0.46Q68.27 0.46 66.18-1.47 64.1-3.39 64.1-6.9L64.1-6.9Q64.1-14.43 76.16-14.81L76.16-14.81 80.4-14.94 80.4-16.48Q80.4-19.46 79.14-20.84 77.87-22.22 74.93-22.22 71.98-22.22 68.04-20.32L68.04-20.32 66.88-23.21Q70.82-25.35 75.32-25.35 79.82-25.35 81.96-23.36 84.09-21.36 84.09-17.01L84.09-17.01ZM107.95-6.8L107.95-6.8Q107.95-3.31 105.36-1.43 102.77 0.46 97.94 0.46 93.11 0.46 90.33-1.11L90.33-1.11 90.33-4.63Q94.23-2.65 98.17-2.65L98.17-2.65Q104.31-2.65 104.31-6.47L104.31-6.47Q104.31-7.94 103.02-8.99 101.73-10.04 98.22-11.36 94.71-12.69 93.16-13.68L93.16-13.68Q90.26-15.65 90.26-18.76 90.26-21.87 92.74-23.62 95.21-25.38 99.42-25.38 103.63-25.38 107.42-23.76L107.42-23.76 106.08-20.68Q102.37-22.22 99.5-22.22 96.63-22.22 95.25-21.4 93.87-20.58 93.87-19.06L93.87-19.06Q93.87-18.1 94.37-17.38 94.86-16.66 96-16.01 97.13-15.37 100.39-14.18L100.39-14.18Q104.84-12.54 106.4-10.91 107.95-9.28 107.95-6.8Z" opacity="1" transform="matrix(1,0,0,1,0,0)" fill="#000000" class="wordmark-text-0" data-fill-palette-color="primary" id="text-0"></path></svg></g></svg></g></svg></g></svg></g></svg></g></svg></g></svg></g><g><path d="M0 123.6c0-68.262 55.338-123.6 123.6-123.6 45.637 0 85.497 24.734 106.907 61.528l-5.275 0c-20.925-34.187-58.614-56.999-101.632-56.999-65.761 0-119.071 53.31-119.071 119.071 0 65.761 53.31 119.071 119.071 119.071 43.018 0 80.708-22.812 101.632-56.999l5.275 0c-21.41 36.794-61.27 61.528-106.907 61.528-68.262 0-123.6-55.338-123.6-123.6z" fill="#000000" stroke="transparent" data-fill-palette-color="tertiary"></path></g></svg></g><defs></defs></svg><rect width="395.52" height="247.2" fill="none" stroke="none" visibility="hidden"></rect></g></svg></g></svg>